<?xml version="1.0" encoding="UTF-8" standalone="yes"?>
<svg version="1.1" id="Layer_1" xmlns:x="&amp;ns_extend;" xmlns:i="&amp;ns_ai;" xmlns:graph="&amp;ns_graphs;" xmlns="http://www.w3.org/2000/svg" xmlns:xlink="http://www.w3.org/1999/xlink" x="0px" y="0px" viewBox="0 0 229.02 315" style="enable-background:new 0 0 229.02 315;" xml:space="preserve">
      <style type="text/css">.st0{fill:#6E0384;}</style>
    <metadata>
              <sfw>
                      <slices/>
            <sliceSourceBounds bottomLeftOrigin="true" height="315" width="229.02" x="399.23" y="-381.2"/>
                  </sfw>
          </metadata>
    <g id="color_index_0" fill="#6e0384">
              <path d="M148.29,243.61l-0.01-0.13c-0.01-0.2-0.01-0.41-0.01-0.61V0c-37.65,2.45-67.55,33.87-67.55,72.12V315&#x9;&#x9;C118.02,312.57,147.91,281.48,148.29,243.61z"/>
        <path d="M0,0v242.87c0,38.28,29.91,69.7,67.59,72.13V72.13C67.59,33.85,37.68,2.43,0,0z"/>
        <path d="M229.02,315V72.13c0-38.28-29.91-69.7-67.59-72.13v242.87C161.44,281.15,191.35,312.57,229.02,315z"/>
          </g>
  </svg>